<?xml version="1.0" standalone="no"?>
<!DOCTYPE svg PUBLIC "-//W3C//DTD SVG 20010904//EN"
 "http://www.w3.org/TR/2001/REC-SVG-20010904/DTD/svg10.dtd">
<svg version="1.0" xmlns="http://www.w3.org/2000/svg"
 width="225.000000pt" height="225.000000pt" viewBox="0 0 225.000000 225.000000"
 preserveAspectRatio="xMidYMid meet">
<metadata>
Created by potrace 1.16, written by Peter Selinger 2001-2019
</metadata>
<g transform="translate(0.000000,225.000000) scale(0.100000,-0.100000)"
fill="#000000" stroke="none">
<path d="M1000 2215 c-6 -8 -9 -23 -6 -33 6 -16 20 -20 94 -26 183 -15 317
-52 467 -129 166 -86 327 -232 431 -393 118 -180 163 -321 190 -596 4 -45 9
-58 25 -63 11 -4 27 -1 35 6 30 25 -1 263 -55 420 -144 427 -517 741 -964 814
-119 19 -201 20 -217 0z"/>
<path d="M325 2021 c-47 -22 -187 -163 -238 -241 -127 -191 -110 -416 48 -657
47 -70 135 -165 444 -476 225 -226 422 -416 471 -453 244 -185 467 -221 674
-111 70 37 256 210 280 261 22 46 20 111 -4 162 -28 57 -161 182 -271 254
-167 110 -217 107 -320 -17 -88 -106 -164 -136 -242 -97 -42 21 -491 466 -528
523 -55 85 -31 161 82 256 78 66 99 97 99 147 0 101 -216 388 -335 444 -60 29
-106 30 -160 5z"/>
<path d="M1003 1959 c-18 -18 -16 -47 5 -57 9 -5 55 -12 102 -15 416 -30 766
-386 797 -810 6 -93 17 -113 54 -102 21 7 22 11 16 109 -22 402 -330 763 -729
855 -115 27 -229 36 -245 20z"/>
<path d="M994 1685 c-13 -34 10 -50 82 -58 197 -21 358 -116 461 -269 61 -92
90 -168 106 -282 14 -96 31 -122 61 -97 38 31 8 203 -58 336 -108 218 -328
368 -563 383 -73 4 -83 3 -89 -13z"/>
</g>
</svg>
